<svg xmlns="http://www.w3.org/2000/svg" width="1024" height="1024" viewBox="0 0 1024 1024" shape-rendering="crispEdges">
<rect x="192" y="96" width="640" height="832" fill="rgb(58,58,58)"/>
<rect x="224" y="128" width="576" height="768" fill="rgb(248,248,248)"/>
<rect x="672" y="768" width="128" height="128" fill="rgb(58,58,58)"/>
<rect x="672" y="768" width="96" height="96" fill="rgb(224,224,224)"/>
<rect x="768" y="864" width="32" height="32" fill="rgb(248,248,248)"/>
<rect x="224" y="128" width="576" height="32" fill="rgb(224,224,224)"/>
<rect x="224" y="128" width="32" height="768" fill="rgb(224,224,224)"/>
<rect x="320" y="352" width="384" height="32" fill="rgb(224,224,224)"/>
<rect x="320" y="480" width="384" height="32" fill="rgb(224,224,224)"/>
<rect x="320" y="608" width="320" height="32" fill="rgb(224,224,224)"/>
<rect x="448" y="224" width="192" height="32" fill="rgb(58,58,58)"/>
<rect x="416" y="256" width="32" height="416" fill="rgb(58,58,58)"/>
<rect x="608" y="256" width="32" height="480" fill="rgb(58,58,58)"/>
<rect x="448" y="704" width="160" height="32" fill="rgb(58,58,58)"/>
<rect x="480" y="288" width="32" height="352" fill="rgb(58,58,58)"/>
<rect x="544" y="288" width="32" height="352" fill="rgb(58,58,58)"/>
<rect x="512" y="608" width="64" height="32" fill="rgb(58,58,58)"/>
<rect x="480" y="256" width="128" height="32" fill="rgb(145,145,145)"/>
<rect x="448" y="288" width="32" height="288" fill="rgb(145,145,145)"/>
<rect x="576" y="288" width="32" height="384" fill="rgb(145,145,145)"/>
<rect x="480" y="672" width="96" height="32" fill="rgb(145,145,145)"/>
<rect x="512" y="320" width="32" height="256" fill="rgb(145,145,145)"/>
<rect x="512" y="256" width="64" height="32" fill="rgb(224,224,224)"/>
<rect x="448" y="320" width="32" height="64" fill="rgb(224,224,224)"/>
<rect x="576" y="320" width="32" height="96" fill="rgb(224,224,224)"/>
</svg>
