<svg xmlns="http://www.w3.org/2000/svg" width="1200" height="630" viewBox="0 0 1200 630" role="img" aria-labelledby="title desc">
  <title id="title">Notit</title>
  <desc id="desc">Open-source Git note app with no subscription and no backend.</desc>
  <rect width="1200" height="630" fill="#050505"/>
  <path d="M0 0h1200v630H0z" fill="#050505"/>
  <g stroke="#151515" stroke-width="1">
    <path d="M0 70h1200M0 140h1200M0 210h1200M0 280h1200M0 350h1200M0 420h1200M0 490h1200M0 560h1200"/>
    <path d="M80 0v630M160 0v630M240 0v630M320 0v630M400 0v630M480 0v630M560 0v630M640 0v630M720 0v630M800 0v630M880 0v630M960 0v630M1040 0v630M1120 0v630"/>
  </g>
  <rect x="70" y="70" width="1060" height="490" fill="none" stroke="#f4f4f4" stroke-width="3"/>
  <rect x="88" y="88" width="1060" height="490" fill="none" stroke="#2d5cff" stroke-width="3"/>
  <text x="112" y="150" fill="#9b9b9b" font-family="Menlo, Monaco, Consolas, monospace" font-size="26" letter-spacing="3">OPEN SOURCE / GIT NOTES / CLIENT SIDE</text>
  <text x="112" y="330" fill="#ffffff" font-family="Menlo, Monaco, Consolas, monospace" font-size="150" font-weight="800">Notit</text>
  <text x="118" y="330" fill="#2d5cff" font-family="Menlo, Monaco, Consolas, monospace" font-size="150" font-weight="800" opacity="0.9">Notit</text>
  <text x="112" y="410" fill="#ffffff" font-family="Inter, Arial, sans-serif" font-size="46" font-weight="700">Your vibe coded open-source Note git app.</text>
  <text x="112" y="480" fill="#d7d7d7" font-family="Menlo, Monaco, Consolas, monospace" font-size="30">No subscription. No backend. Full client-side sync.</text>
</svg>
