<svg xmlns="http://www.w3.org/2000/svg" width="1200" height="630" viewBox="0 0 1200 630" role="img" aria-labelledby="title desc">
  <title id="title">Notit</title>
  <desc id="desc">Free private GitHub notes with ChatGPT integration, no backend, and no subscription.</desc>
  <rect width="1200" height="630" fill="#050505"/>
  <g stroke="#111827" stroke-width="1">
    <path d="M0 70h1200M0 140h1200M0 210h1200M0 280h1200M0 350h1200M0 420h1200M0 490h1200M0 560h1200"/>
    <path d="M80 0v630M160 0v630M240 0v630M320 0v630M400 0v630M480 0v630M560 0v630M640 0v630M720 0v630M800 0v630M880 0v630M960 0v630M1040 0v630M1120 0v630"/>
  </g>
  <rect x="72" y="72" width="1056" height="486" fill="#070707" stroke="#f4f4f4" stroke-width="3"/>
  <rect x="90" y="90" width="1056" height="486" fill="none" stroke="#2d5cff" stroke-width="3"/>
  <rect x="112" y="112" width="76" height="76" fill="#fff" stroke="#f4f4f4" stroke-width="2"/>
  <rect x="128" y="128" width="44" height="10" fill="#050505"/>
  <rect x="128" y="148" width="44" height="10" fill="#050505"/>
  <rect x="128" y="168" width="26" height="10" fill="#050505"/>
  <text x="112" y="248" fill="#9b9b9b" font-family="Menlo, Monaco, Consolas, monospace" font-size="28" letter-spacing="3">OPEN SOURCE / GITHUB NOTES / CLIENT SIDE</text>
  <text x="112" y="386" fill="#2d5cff" font-family="Menlo, Monaco, Consolas, monospace" font-size="142" font-weight="800">Notit</text>
  <text x="104" y="378" fill="#ffffff" font-family="Menlo, Monaco, Consolas, monospace" font-size="142" font-weight="800">Notit</text>
  <text x="112" y="464" fill="#ffffff" font-family="Menlo, Monaco, Consolas, monospace" font-size="36" font-weight="700">Free, private GitHub notes.</text>
  <text x="112" y="518" fill="#d7d7d7" font-family="Menlo, Monaco, Consolas, monospace" font-size="28">No backend. No subscription. ChatGPT integrated.</text>
</svg>
